# xmcd
#
# Track frame offsets:
#	150
#	12440
#	22225
#	31270
#	39982
#	49732
#	58685
#	67120
#	79840
#	91262
#	107292
#	116177
#	124202
#	136997
#	147807
#	155225
#	164785
#	173162
#	187437
#	197350
#	208275
#	223992
#	240665
#	250242
#	259702
#
# Disc length: 3625 seconds
#
# Revision: 2
# Processed by: cddbd v1.5.2PL0 Copyright (c) Steve Scherf et al.
# Submitted via: EZCDDA 4.3.2
#
DISCID=7f0e2719
DTITLE=Mioara Velicu - Cand aud ca-i hora-n sat
DYEAR=1900
DGENRE=
TTITLE0=Cand aud ca-i hora-n sat
TTITLE1=Arza-te-ar focul de viata!
TTITLE2=Hora de la Prut
TTITLE3=Bate toba, maruntel!
TTITLE4=Mi-a venit vremea sa mor
TTITLE5=A venit toamna bogata
TTITLE6=Cantecul soferului
TTITLE7=Tot ma cearta barbatul
TTITLE8=Eu de cand ma stiu pe lume
TTITLE9=Drag mi-e chipul mamei mele
TTITLE10=Hai, sa scoatem dantu-afara!
TTITLE11=Aoleu, m-as marita!
TTITLE12=Am primit ieri o scrisoare
TTITLE13=Trompeta
TTITLE14=Zi-i mai tare, lautare!
TTITLE15=Te rugam maicuta mea
TTITLE16=M-o facut mama frumoasa
TTITLE17=Omul care nu iubeste
TTITLE18=Cand m-o facut mama mea
TTITLE19=Douazeci de primaveri
TTITLE20=Doamne, cand o fi sa mor!
TTITLE21=Asa-i hora pe la noi
TTITLE22=Vorbeste lumea, vorbeste
TTITLE23=Tare-s mandra ca-s soldat
TTITLE24=Padure cu brazi umbrosi
EXTD=
EXTT0=
EXTT1=
EXTT2=
EXTT3=
EXTT4=
EXTT5=
EXTT6=
EXTT7=
EXTT8=
EXTT9=
EXTT10=
EXTT11=
EXTT12=
EXTT13=
EXTT14=
EXTT15=
EXTT16=
EXTT17=
EXTT18=
EXTT19=
EXTT20=
EXTT21=
EXTT22=
EXTT23=
EXTT24=
PLAYORDER=
